<svg xmlns="http://www.w3.org/2000/svg" xmlns:xlink="http://www.w3.org/1999/xlink" contentStyleType="text/css" data-diagram-type="SEQUENCE" height="494px" preserveAspectRatio="none" style="width:675px;height:494px;background:#FFFFFF;" version="1.1" viewBox="0 0 675 494" width="675px" zoomAndPan="magnify"><title>Reporting: Dashboard Stats Sequence</title><defs/><g><text fill="#000000" font-family="Verdana" font-size="22" font-weight="bold" lengthAdjust="spacing" textLength="474.5254" x="104.3237" y="35.4209">Reporting: Dashboard Stats Sequence</text><g><title>ReportController</title><rect fill="#FFFFFF" height="235.0625" style="stroke:#000000;stroke-width:1;" width="10" x="209.3149" y="160.0391"/></g><g><title>ReportService</title><rect fill="#FFFFFF" height="176.7969" style="stroke:#000000;stroke-width:1;" width="10" x="373.7485" y="189.1719"/></g><rect fill="#FFFFFF" height="133.6641" style="stroke:#000000;stroke-width:1;" width="366.814" x="302.3589" y="204.1719"/><g><title>Admin</title><rect fill="#000000" fill-opacity="0.00000" height="284.1953" width="8" x="31.4321" y="128.9063"/><line style="stroke:#000000;stroke-width:1;stroke-dasharray:5,5;" x1="35" x2="35" y1="128.9063" y2="413.1016"/></g><g><title>ReportController</title><rect fill="#000000" fill-opacity="0.00000" height="284.1953" width="8" x="210.3149" y="128.9063"/><line style="stroke:#000000;stroke-width:1;stroke-dasharray:5,5;" x1="214.2095" x2="214.2095" y1="128.9063" y2="413.1016"/></g><g><title>ReportService</title><rect fill="#000000" fill-opacity="0.00000" height="284.1953" width="8" x="374.7485" y="128.9063"/><line style="stroke:#000000;stroke-width:1;stroke-dasharray:5,5;" x1="378.3589" x2="378.3589" y1="128.9063" y2="413.1016"/></g><g><title>Database</title><rect fill="#000000" fill-opacity="0.00000" height="284.1953" width="8" x="604.7725" y="128.9063"/><line style="stroke:#000000;stroke-width:1;stroke-dasharray:5,5;" x1="608.3721" x2="608.3721" y1="128.9063" y2="413.1016"/></g><g class="participant participant-head" data-participant="Admin"><text fill="#000000" font-family="Verdana" font-size="14" lengthAdjust="spacing" textLength="44.8643" x="10" y="125.6045">Admin</text><ellipse cx="35.4321" cy="60.6094" fill="#FFFFFF" rx="8" ry="8" style="stroke:#000000;stroke-width:1;"/><path d="M35.4321,68.6094 L35.4321,95.6094 M22.4321,76.6094 L48.4321,76.6094 M35.4321,95.6094 L22.4321,110.6094 M35.4321,95.6094 L48.4321,110.6094" fill="none" style="stroke:#000000;stroke-width:1;"/></g><g class="participant participant-tail" data-participant="Admin"><text fill="#000000" font-family="Verdana" font-size="14" lengthAdjust="spacing" textLength="44.8643" x="10" y="425.0967">Admin</text><ellipse cx="35.4321" cy="437.3984" fill="#FFFFFF" rx="8" ry="8" style="stroke:#000000;stroke-width:1;"/><path d="M35.4321,445.3984 L35.4321,472.3984 M22.4321,453.3984 L48.4321,453.3984 M35.4321,472.3984 L22.4321,487.3984 M35.4321,472.3984 L48.4321,487.3984" fill="none" style="stroke:#000000;stroke-width:1;"/></g><g class="participant participant-head" data-participant="ReportCtrl"><rect fill="#FFFFFF" height="30.2969" rx="2.5" ry="2.5" style="stroke:#000000;stroke-width:1;" width="130.2109" x="149.2095" y="97.6094"/><text fill="#000000" font-family="Verdana" font-size="14" lengthAdjust="spacing" textLength="116.2109" x="156.2095" y="117.6045">ReportController</text></g><g class="participant participant-tail" data-participant="ReportCtrl"><rect fill="#FFFFFF" height="30.2969" rx="2.5" ry="2.5" style="stroke:#000000;stroke-width:1;" width="130.2109" x="149.2095" y="412.1016"/><text fill="#000000" font-family="Verdana" font-size="14" lengthAdjust="spacing" textLength="116.2109" x="156.2095" y="432.0967">ReportController</text></g><g class="participant participant-head" data-participant="ReportService"><rect fill="#FFFFFF" height="30.2969" rx="2.5" ry="2.5" style="stroke:#000000;stroke-width:1;" width="112.7793" x="322.3589" y="97.6094"/><text fill="#000000" font-family="Verdana" font-size="14" lengthAdjust="spacing" textLength="98.7793" x="329.3589" y="117.6045">ReportService</text></g><g class="participant participant-tail" data-participant="ReportService"><rect fill="#FFFFFF" height="30.2969" rx="2.5" ry="2.5" style="stroke:#000000;stroke-width:1;" width="112.7793" x="322.3589" y="412.1016"/><text fill="#000000" font-family="Verdana" font-size="14" lengthAdjust="spacing" textLength="98.7793" x="329.3589" y="432.0967">ReportService</text></g><g class="participant participant-head" data-participant="DB"><rect fill="#FFFFFF" height="30.2969" rx="2.5" ry="2.5" style="stroke:#000000;stroke-width:1;" width="80.8008" x="568.3721" y="97.6094"/><text fill="#000000" font-family="Verdana" font-size="14" lengthAdjust="spacing" textLength="66.8008" x="575.3721" y="117.6045">Database</text></g><g class="participant participant-tail" data-participant="DB"><rect fill="#FFFFFF" height="30.2969" rx="2.5" ry="2.5" style="stroke:#000000;stroke-width:1;" width="80.8008" x="568.3721" y="412.1016"/><text fill="#000000" font-family="Verdana" font-size="14" lengthAdjust="spacing" textLength="66.8008" x="575.3721" y="432.0967">Database</text></g><g><title>ReportController</title><rect fill="#FFFFFF" height="235.0625" style="stroke:#000000;stroke-width:1;" width="10" x="209.3149" y="160.0391"/></g><g><title>ReportService</title><rect fill="#FFFFFF" height="176.7969" style="stroke:#000000;stroke-width:1;" width="10" x="373.7485" y="189.1719"/></g><g class="message" data-participant-1="Admin" data-participant-2="ReportCtrl"><polygon fill="#000000" points="197.3149,156.0391,207.3149,160.0391,197.3149,164.0391,201.3149,160.0391" style="stroke:#000000;stroke-width:1;"/><line style="stroke:#000000;stroke-width:1;" x1="35.4321" x2="203.3149" y1="160.0391" y2="160.0391"/><text fill="#000000" font-family="Verdana" font-size="13" lengthAdjust="spacing" textLength="154.8828" x="42.4321" y="154.9731">GET /reports/dashboard</text></g><g class="message" data-participant-1="ReportCtrl" data-participant-2="ReportService"><polygon fill="#000000" points="361.7485,185.1719,371.7485,189.1719,361.7485,193.1719,365.7485,189.1719" style="stroke:#000000;stroke-width:1;"/><line style="stroke:#000000;stroke-width:1;" x1="219.3149" x2="367.7485" y1="189.1719" y2="189.1719"/><text fill="#000000" font-family="Verdana" font-size="13" lengthAdjust="spacing" textLength="135.4336" x="226.3149" y="184.106">getDashboardStats()</text></g><path d="M302.3589,204.1719 L371.8481,204.1719 L371.8481,211.3047 L361.8481,221.3047 L302.3589,221.3047 L302.3589,204.1719" fill="#FFFFFF" style="stroke:#000000;stroke-width:1;"/><rect fill="none" height="133.6641" style="stroke:#000000;stroke-width:1;" width="366.814" x="302.3589" y="204.1719"/><text fill="#000000" font-family="Verdana" font-size="13" font-weight="bold" lengthAdjust="spacing" textLength="24.4893" x="317.3589" y="217.2388">par</text><g class="message" data-participant-1="ReportService" data-participant-2="DB"><polygon fill="#000000" points="596.7725,238.4375,606.7725,242.4375,596.7725,246.4375,600.7725,242.4375" style="stroke:#000000;stroke-width:1;"/><line style="stroke:#000000;stroke-width:1;" x1="383.7485" x2="602.7725" y1="242.4375" y2="242.4375"/><text fill="#000000" font-family="Verdana" font-size="13" lengthAdjust="spacing" textLength="83.2241" x="390.7485" y="237.3716">countUsers()</text></g><g class="message" data-participant-1="ReportService" data-participant-2="DB"><polygon fill="#000000" points="596.7725,267.5703,606.7725,271.5703,596.7725,275.5703,600.7725,271.5703" style="stroke:#000000;stroke-width:1;"/><line style="stroke:#000000;stroke-width:1;" x1="383.7485" x2="602.7725" y1="271.5703" y2="271.5703"/><text fill="#000000" font-family="Verdana" font-size="13" lengthAdjust="spacing" textLength="201.0239" x="390.7485" y="266.5044">countOrders(status=PENDING)</text></g><g class="message" data-participant-1="ReportService" data-participant-2="DB"><polygon fill="#000000" points="596.7725,296.7031,606.7725,300.7031,596.7725,304.7031,600.7725,300.7031" style="stroke:#000000;stroke-width:1;"/><line style="stroke:#000000;stroke-width:1;" x1="383.7485" x2="602.7725" y1="300.7031" y2="300.7031"/><text fill="#000000" font-family="Verdana" font-size="13" lengthAdjust="spacing" textLength="131.9805" x="390.7485" y="295.6372">sumRevenue(today)</text></g><g class="message" data-participant-1="ReportService" data-participant-2="DB"><polygon fill="#000000" points="596.7725,325.8359,606.7725,329.8359,596.7725,333.8359,600.7725,329.8359" style="stroke:#000000;stroke-width:1;"/><line style="stroke:#000000;stroke-width:1;" x1="383.7485" x2="602.7725" y1="329.8359" y2="329.8359"/><text fill="#000000" font-family="Verdana" font-size="13" lengthAdjust="spacing" textLength="149.9443" x="390.7485" y="324.77">getLowStockProducts()</text></g><g class="message" data-participant-1="ReportService" data-participant-2="ReportCtrl"><polygon fill="#000000" points="230.3149,361.9688,220.3149,365.9688,230.3149,369.9688,226.3149,365.9688" style="stroke:#000000;stroke-width:1;"/><line style="stroke:#000000;stroke-width:1;stroke-dasharray:2,2;" x1="224.3149" x2="377.7485" y1="365.9688" y2="365.9688"/><text fill="#000000" font-family="Verdana" font-size="13" lengthAdjust="spacing" textLength="58.5063" x="236.3149" y="360.9028">statsJson</text></g><g class="message" data-participant-1="ReportCtrl" data-participant-2="Admin"><polygon fill="#000000" points="46.4321,391.1016,36.4321,395.1016,46.4321,399.1016,42.4321,395.1016" style="stroke:#000000;stroke-width:1;"/><line style="stroke:#000000;stroke-width:1;stroke-dasharray:2,2;" x1="40.4321" x2="213.3149" y1="395.1016" y2="395.1016"/><text fill="#000000" font-family="Verdana" font-size="13" lengthAdjust="spacing" textLength="47.7026" x="52.4321" y="390.0356">200 OK</text></g><!--SRC=[XP7DRi8m48JlVefjJlHGWNf4QgNI8DGV0IBj0ops2gmcTcglgVhsTKo80gKqfsWry-ti-8gtL17K9MeZM7D9iABQEjPcCuOS_NPjqIae6Db3GP-1Z2GXKB9ra3seIfiCq4Fw4pL6fzGr6ePi3tgqXfqjIt99rmxPbUV41RcTbjHJjfDZSOwCQ_HxNJuH8cs7c_iU7iOmcxx1qAM97wh3BKrslKEcVXRHCtQOTdSaROYxBb8LW-jJp25earH0_8uP4PfF8adQOFZTasiG_yWMJZKw7nS6VxUSplEd-UoIouTgHJioWGPi5NvVqiQJNkrNmLP-B9rLGQQZoAX35vtXjDOcZt_srWX5VvNGhpFwz-ypXjlH21Ollttf3Nu0]--></g></svg>