<svg xmlns="http://www.w3.org/2000/svg" xmlns:xlink="http://www.w3.org/1999/xlink" contentStyleType="text/css" data-diagram-type="SEQUENCE" height="463px" preserveAspectRatio="none" style="width:637px;height:463px;background:#FFFFFF;" version="1.1" viewBox="0 0 637 463" width="637px" zoomAndPan="magnify"><title>Promotion: Create Coupon Sequence</title><defs/><g><text fill="#000000" font-family="Verdana" font-size="22" font-weight="bold" lengthAdjust="spacing" textLength="457.1016" x="96.5952" y="35.4209">Promotion: Create Coupon Sequence</text><g><title>CouponController</title><rect fill="#FFFFFF" height="203.9297" style="stroke:#000000;stroke-width:1;" width="10" x="151.7671" y="160.0391"/></g><g><title>CouponService</title><rect fill="#FFFFFF" height="145.6641" style="stroke:#000000;stroke-width:1;" width="10" x="389.9097" y="189.1719"/></g><g><title>Coupon .DB.</title><rect fill="#FFFFFF" height="29.1328" style="stroke:#000000;stroke-width:1;" width="10" x="574.6431" y="276.5703"/></g><g><title>Admin</title><rect fill="#000000" fill-opacity="0.00000" height="253.0625" width="8" x="31.4321" y="128.9063"/><line style="stroke:#000000;stroke-width:1;stroke-dasharray:5,5;" x1="35" x2="35" y1="128.9063" y2="381.9688"/></g><g><title>CouponController</title><rect fill="#000000" fill-opacity="0.00000" height="253.0625" width="8" x="152.7671" y="128.9063"/><line style="stroke:#000000;stroke-width:1;stroke-dasharray:5,5;" x1="156.4111" x2="156.4111" y1="128.9063" y2="381.9688"/></g><g><title>CouponService</title><rect fill="#000000" fill-opacity="0.00000" height="253.0625" width="8" x="390.9097" y="128.9063"/><line style="stroke:#000000;stroke-width:1;stroke-dasharray:5,5;" x1="394.2695" x2="394.2695" y1="128.9063" y2="381.9688"/></g><g><title>Coupon .DB.</title><rect fill="#000000" fill-opacity="0.00000" height="253.0625" width="8" x="575.6431" y="128.9063"/><line style="stroke:#000000;stroke-width:1;stroke-dasharray:5,5;" x1="578.9941" x2="578.9941" y1="128.9063" y2="381.9688"/></g><g class="participant participant-head" data-participant="Admin"><text fill="#000000" font-family="Verdana" font-size="14" lengthAdjust="spacing" textLength="44.8643" x="10" y="125.6045">Admin</text><ellipse cx="35.4321" cy="60.6094" fill="#FFFFFF" rx="8" ry="8" style="stroke:#000000;stroke-width:1;"/><path d="M35.4321,68.6094 L35.4321,95.6094 M22.4321,76.6094 L48.4321,76.6094 M35.4321,95.6094 L22.4321,110.6094 M35.4321,95.6094 L48.4321,110.6094" fill="none" style="stroke:#000000;stroke-width:1;"/></g><g class="participant participant-tail" data-participant="Admin"><text fill="#000000" font-family="Verdana" font-size="14" lengthAdjust="spacing" textLength="44.8643" x="10" y="393.9639">Admin</text><ellipse cx="35.4321" cy="406.2656" fill="#FFFFFF" rx="8" ry="8" style="stroke:#000000;stroke-width:1;"/><path d="M35.4321,414.2656 L35.4321,441.2656 M22.4321,422.2656 L48.4321,422.2656 M35.4321,441.2656 L22.4321,456.2656 M35.4321,441.2656 L48.4321,456.2656" fill="none" style="stroke:#000000;stroke-width:1;"/></g><g class="participant participant-head" data-participant="CouponCtrl"><rect fill="#FFFFFF" height="30.2969" rx="2.5" ry="2.5" style="stroke:#000000;stroke-width:1;" width="136.7119" x="88.4111" y="97.6094"/><text fill="#000000" font-family="Verdana" font-size="14" lengthAdjust="spacing" textLength="122.7119" x="95.4111" y="117.6045">CouponController</text></g><g class="participant participant-tail" data-participant="CouponCtrl"><rect fill="#FFFFFF" height="30.2969" rx="2.5" ry="2.5" style="stroke:#000000;stroke-width:1;" width="136.7119" x="88.4111" y="380.9688"/><text fill="#000000" font-family="Verdana" font-size="14" lengthAdjust="spacing" textLength="122.7119" x="95.4111" y="400.9639">CouponController</text></g><g class="participant participant-head" data-participant="CouponService"><rect fill="#FFFFFF" height="30.2969" rx="2.5" ry="2.5" style="stroke:#000000;stroke-width:1;" width="119.2803" x="335.2695" y="97.6094"/><text fill="#000000" font-family="Verdana" font-size="14" lengthAdjust="spacing" textLength="105.2803" x="342.2695" y="117.6045">CouponService</text></g><g class="participant participant-tail" data-participant="CouponService"><rect fill="#FFFFFF" height="30.2969" rx="2.5" ry="2.5" style="stroke:#000000;stroke-width:1;" width="119.2803" x="335.2695" y="380.9688"/><text fill="#000000" font-family="Verdana" font-size="14" lengthAdjust="spacing" textLength="105.2803" x="342.2695" y="400.9639">CouponService</text></g><g class="participant participant-head" data-participant="CouponDB"><rect fill="#FFFFFF" height="30.2969" rx="2.5" ry="2.5" style="stroke:#000000;stroke-width:1;" width="103.2979" x="527.9941" y="97.6094"/><text fill="#000000" font-family="Verdana" font-size="14" lengthAdjust="spacing" textLength="89.2979" x="534.9941" y="117.6045">Coupon (DB)</text></g><g class="participant participant-tail" data-participant="CouponDB"><rect fill="#FFFFFF" height="30.2969" rx="2.5" ry="2.5" style="stroke:#000000;stroke-width:1;" width="103.2979" x="527.9941" y="380.9688"/><text fill="#000000" font-family="Verdana" font-size="14" lengthAdjust="spacing" textLength="89.2979" x="534.9941" y="400.9639">Coupon (DB)</text></g><g><title>CouponController</title><rect fill="#FFFFFF" height="203.9297" style="stroke:#000000;stroke-width:1;" width="10" x="151.7671" y="160.0391"/></g><g><title>CouponService</title><rect fill="#FFFFFF" height="145.6641" style="stroke:#000000;stroke-width:1;" width="10" x="389.9097" y="189.1719"/></g><g><title>Coupon .DB.</title><rect fill="#FFFFFF" height="29.1328" style="stroke:#000000;stroke-width:1;" width="10" x="574.6431" y="276.5703"/></g><g class="message" data-participant-1="Admin" data-participant-2="CouponCtrl"><polygon fill="#000000" points="139.7671,156.0391,149.7671,160.0391,139.7671,164.0391,143.7671,160.0391" style="stroke:#000000;stroke-width:1;"/><line style="stroke:#000000;stroke-width:1;" x1="35.4321" x2="145.7671" y1="160.0391" y2="160.0391"/><text fill="#000000" font-family="Verdana" font-size="13" lengthAdjust="spacing" textLength="97.335" x="42.4321" y="154.9731">POST /coupons</text></g><g class="message" data-participant-1="CouponCtrl" data-participant-2="CouponService"><polygon fill="#000000" points="377.9097,185.1719,387.9097,189.1719,377.9097,193.1719,381.9097,189.1719" style="stroke:#000000;stroke-width:1;"/><line style="stroke:#000000;stroke-width:1;" x1="161.7671" x2="383.9097" y1="189.1719" y2="189.1719"/><text fill="#000000" font-family="Verdana" font-size="13" lengthAdjust="spacing" textLength="209.1426" x="168.7671" y="184.106">create(promoId, code, discount)</text></g><g class="message" data-participant-1="CouponService" data-participant-2="CouponDB"><polygon fill="#000000" points="567.6431,214.3047,577.6431,218.3047,567.6431,222.3047,571.6431,218.3047" style="stroke:#000000;stroke-width:1;"/><line style="stroke:#000000;stroke-width:1;" x1="399.9097" x2="573.6431" y1="218.3047" y2="218.3047"/><text fill="#000000" font-family="Verdana" font-size="13" lengthAdjust="spacing" textLength="155.7334" x="406.9097" y="213.2388">findPromotion(promoId)</text></g><g class="message" data-participant-1="CouponService" data-participant-2="CouponDB"><polygon fill="#000000" points="567.6431,243.4375,577.6431,247.4375,567.6431,251.4375,571.6431,247.4375" style="stroke:#000000;stroke-width:1;"/><line style="stroke:#000000;stroke-width:1;" x1="399.9097" x2="573.6431" y1="247.4375" y2="247.4375"/><text fill="#000000" font-family="Verdana" font-size="13" lengthAdjust="spacing" textLength="150.998" x="406.9097" y="242.3716">checkCodeExists(code)</text></g><g class="message" data-participant-1="CouponService" data-participant-2="CouponDB"><polygon fill="#000000" points="562.6431,272.5703,572.6431,276.5703,562.6431,280.5703,566.6431,276.5703" style="stroke:#000000;stroke-width:1;"/><line style="stroke:#000000;stroke-width:1;" x1="399.9097" x2="568.6431" y1="276.5703" y2="276.5703"/><text fill="#000000" font-family="Verdana" font-size="13" lengthAdjust="spacing" textLength="80.9771" x="406.9097" y="271.5044">create(data)</text></g><g class="message" data-participant-1="CouponDB" data-participant-2="CouponService"><polygon fill="#000000" points="410.9097,301.7031,400.9097,305.7031,410.9097,309.7031,406.9097,305.7031" style="stroke:#000000;stroke-width:1;"/><line style="stroke:#000000;stroke-width:1;stroke-dasharray:2,2;" x1="404.9097" x2="578.6431" y1="305.7031" y2="305.7031"/><text fill="#000000" font-family="Verdana" font-size="13" lengthAdjust="spacing" textLength="47.7852" x="416.9097" y="300.6372">coupon</text></g><g class="message" data-participant-1="CouponService" data-participant-2="CouponCtrl"><polygon fill="#000000" points="172.7671,330.8359,162.7671,334.8359,172.7671,338.8359,168.7671,334.8359" style="stroke:#000000;stroke-width:1;"/><line style="stroke:#000000;stroke-width:1;stroke-dasharray:2,2;" x1="166.7671" x2="393.9097" y1="334.8359" y2="334.8359"/><text fill="#000000" font-family="Verdana" font-size="13" lengthAdjust="spacing" textLength="47.7852" x="178.7671" y="329.77">coupon</text></g><g class="message" data-participant-1="CouponCtrl" data-participant-2="Admin"><polygon fill="#000000" points="46.4321,359.9688,36.4321,363.9688,46.4321,367.9688,42.4321,363.9688" style="stroke:#000000;stroke-width:1;"/><line style="stroke:#000000;stroke-width:1;stroke-dasharray:2,2;" x1="40.4321" x2="155.7671" y1="363.9688" y2="363.9688"/><text fill="#000000" font-family="Verdana" font-size="13" lengthAdjust="spacing" textLength="80.6787" x="52.4321" y="358.9028">201 Created</text></g><!--SRC=[VL9BReCm4Dtx55DM82NgPycYKe4kkceaUW7BdYgZ69kQITJZrnX2AT3ixD7xpRFl-8WDGciaMS741k7WNUEOdCsXz2WPeNJdrbceyUkCLg4GKh7paBpeXcm2ieDu4gtqJ8fQQHcIWLGwozuPWpxYnY5ximMkqLz8uGmvJhR0a5P5DeDMXH0n1koVPpwGm-6z_e1x5KTTdvqklrl5B6A6dzYZTn1GiOQqxOjvqpjGJkCED7L1qtAsbBo65dzr9k6g29gVPFNKz5KwkqbHHrIdCdY_VbF7NTh7o6wxZCcrPBcA6GgRaFkjhUDTQ5ppbfxBnl-ZBfeP-WxauTroU7fu7F-SNfFZI_q0]--></g></svg>