<svg xmlns="http://www.w3.org/2000/svg" xmlns:xlink="http://www.w3.org/1999/xlink" contentStyleType="text/css" data-diagram-type="SEQUENCE" height="405px" preserveAspectRatio="none" style="width:1048px;height:405px;background:#FFFFFF;" version="1.1" viewBox="0 0 1048 405" width="1048px" zoomAndPan="magnify"><title>Reporting: Sales Report Sequence</title><defs/><g><text fill="#000000" font-family="Verdana" font-size="22" font-weight="bold" lengthAdjust="spacing" textLength="425.874" x="317.908" y="35.4209">Reporting: Sales Report Sequence</text><g><title>ReportController</title><rect fill="#FFFFFF" height="145.6641" style="stroke:#000000;stroke-width:1;" width="10" x="274.4292" y="160.0391"/></g><g><title>ReportService</title><rect fill="#FFFFFF" height="87.3984" style="stroke:#000000;stroke-width:1;" width="10" x="538.375" y="189.1719"/></g><g><title>Order .DB.</title><rect fill="#FFFFFF" height="29.1328" style="stroke:#000000;stroke-width:1;" width="10" x="992.7949" y="218.3047"/></g><g><title>Admin</title><rect fill="#000000" fill-opacity="0.00000" height="194.7969" width="8" x="31.4321" y="128.9063"/><line style="stroke:#000000;stroke-width:1;stroke-dasharray:5,5;" x1="35" x2="35" y1="128.9063" y2="323.7031"/></g><g><title>ReportController</title><rect fill="#000000" fill-opacity="0.00000" height="194.7969" width="8" x="275.4292" y="128.9063"/><line style="stroke:#000000;stroke-width:1;stroke-dasharray:5,5;" x1="279.3237" x2="279.3237" y1="128.9063" y2="323.7031"/></g><g><title>ReportService</title><rect fill="#000000" fill-opacity="0.00000" height="194.7969" width="8" x="539.375" y="128.9063"/><line style="stroke:#000000;stroke-width:1;stroke-dasharray:5,5;" x1="542.9854" x2="542.9854" y1="128.9063" y2="323.7031"/></g><g><title>Order .DB.</title><rect fill="#000000" fill-opacity="0.00000" height="194.7969" width="8" x="993.7949" y="128.9063"/><line style="stroke:#000000;stroke-width:1;stroke-dasharray:5,5;" x1="996.8999" x2="996.8999" y1="128.9063" y2="323.7031"/></g><g class="participant participant-head" data-participant="Admin"><text fill="#000000" font-family="Verdana" font-size="14" lengthAdjust="spacing" textLength="44.8643" x="10" y="125.6045">Admin</text><ellipse cx="35.4321" cy="60.6094" fill="#FFFFFF" rx="8" ry="8" style="stroke:#000000;stroke-width:1;"/><path d="M35.4321,68.6094 L35.4321,95.6094 M22.4321,76.6094 L48.4321,76.6094 M35.4321,95.6094 L22.4321,110.6094 M35.4321,95.6094 L48.4321,110.6094" fill="none" style="stroke:#000000;stroke-width:1;"/></g><g class="participant participant-tail" data-participant="Admin"><text fill="#000000" font-family="Verdana" font-size="14" lengthAdjust="spacing" textLength="44.8643" x="10" y="335.6982">Admin</text><ellipse cx="35.4321" cy="348" fill="#FFFFFF" rx="8" ry="8" style="stroke:#000000;stroke-width:1;"/><path d="M35.4321,356 L35.4321,383 M22.4321,364 L48.4321,364 M35.4321,383 L22.4321,398 M35.4321,383 L48.4321,398" fill="none" style="stroke:#000000;stroke-width:1;"/></g><g class="participant participant-head" data-participant="ReportCtrl"><rect fill="#FFFFFF" height="30.2969" rx="2.5" ry="2.5" style="stroke:#000000;stroke-width:1;" width="130.2109" x="214.3237" y="97.6094"/><text fill="#000000" font-family="Verdana" font-size="14" lengthAdjust="spacing" textLength="116.2109" x="221.3237" y="117.6045">ReportController</text></g><g class="participant participant-tail" data-participant="ReportCtrl"><rect fill="#FFFFFF" height="30.2969" rx="2.5" ry="2.5" style="stroke:#000000;stroke-width:1;" width="130.2109" x="214.3237" y="322.7031"/><text fill="#000000" font-family="Verdana" font-size="14" lengthAdjust="spacing" textLength="116.2109" x="221.3237" y="342.6982">ReportController</text></g><g class="participant participant-head" data-participant="ReportService"><rect fill="#FFFFFF" height="30.2969" rx="2.5" ry="2.5" style="stroke:#000000;stroke-width:1;" width="112.7793" x="486.9854" y="97.6094"/><text fill="#000000" font-family="Verdana" font-size="14" lengthAdjust="spacing" textLength="98.7793" x="493.9854" y="117.6045">ReportService</text></g><g class="participant participant-tail" data-participant="ReportService"><rect fill="#FFFFFF" height="30.2969" rx="2.5" ry="2.5" style="stroke:#000000;stroke-width:1;" width="112.7793" x="486.9854" y="322.7031"/><text fill="#000000" font-family="Verdana" font-size="14" lengthAdjust="spacing" textLength="98.7793" x="493.9854" y="342.6982">ReportService</text></g><g class="participant participant-head" data-participant="OrderDB"><rect fill="#FFFFFF" height="30.2969" rx="2.5" ry="2.5" style="stroke:#000000;stroke-width:1;" width="89.79" x="952.8999" y="97.6094"/><text fill="#000000" font-family="Verdana" font-size="14" lengthAdjust="spacing" textLength="75.79" x="959.8999" y="117.6045">Order (DB)</text></g><g class="participant participant-tail" data-participant="OrderDB"><rect fill="#FFFFFF" height="30.2969" rx="2.5" ry="2.5" style="stroke:#000000;stroke-width:1;" width="89.79" x="952.8999" y="322.7031"/><text fill="#000000" font-family="Verdana" font-size="14" lengthAdjust="spacing" textLength="75.79" x="959.8999" y="342.6982">Order (DB)</text></g><g><title>ReportController</title><rect fill="#FFFFFF" height="145.6641" style="stroke:#000000;stroke-width:1;" width="10" x="274.4292" y="160.0391"/></g><g><title>ReportService</title><rect fill="#FFFFFF" height="87.3984" style="stroke:#000000;stroke-width:1;" width="10" x="538.375" y="189.1719"/></g><g><title>Order .DB.</title><rect fill="#FFFFFF" height="29.1328" style="stroke:#000000;stroke-width:1;" width="10" x="992.7949" y="218.3047"/></g><g class="message" data-participant-1="Admin" data-participant-2="ReportCtrl"><polygon fill="#000000" points="262.4292,156.0391,272.4292,160.0391,262.4292,164.0391,266.4292,160.0391" style="stroke:#000000;stroke-width:1;"/><line style="stroke:#000000;stroke-width:1;" x1="35.4321" x2="268.4292" y1="160.0391" y2="160.0391"/><text fill="#000000" font-family="Verdana" font-size="13" lengthAdjust="spacing" textLength="219.9971" x="42.4321" y="154.9731">GET /reports/sales?dateRange=...</text></g><g class="message" data-participant-1="ReportCtrl" data-participant-2="ReportService"><polygon fill="#000000" points="526.375,185.1719,536.375,189.1719,526.375,193.1719,530.375,189.1719" style="stroke:#000000;stroke-width:1;"/><line style="stroke:#000000;stroke-width:1;" x1="284.4292" x2="532.375" y1="189.1719" y2="189.1719"/><text fill="#000000" font-family="Verdana" font-size="13" lengthAdjust="spacing" textLength="234.9458" x="291.4292" y="184.106">getSalesReport(startDate, endDate)</text></g><g class="message" data-participant-1="ReportService" data-participant-2="OrderDB"><polygon fill="#000000" points="980.7949,214.3047,990.7949,218.3047,980.7949,222.3047,984.7949,218.3047" style="stroke:#000000;stroke-width:1;"/><line style="stroke:#000000;stroke-width:1;" x1="548.375" x2="986.7949" y1="218.3047" y2="218.3047"/><text fill="#000000" font-family="Verdana" font-size="13" lengthAdjust="spacing" textLength="425.4199" x="555.375" y="213.2388">aggregate(sum: total, groupBy: date, where: status=DELIVERED)</text></g><g class="message" data-participant-1="OrderDB" data-participant-2="ReportService"><polygon fill="#000000" points="559.375,243.4375,549.375,247.4375,559.375,251.4375,555.375,247.4375" style="stroke:#000000;stroke-width:1;"/><line style="stroke:#000000;stroke-width:1;stroke-dasharray:2,2;" x1="553.375" x2="996.7949" y1="247.4375" y2="247.4375"/><text fill="#000000" font-family="Verdana" font-size="13" lengthAdjust="spacing" textLength="29.2817" x="565.375" y="242.3716">data</text></g><g class="message" data-participant-1="ReportService" data-participant-2="ReportCtrl"><polygon fill="#000000" points="295.4292,272.5703,285.4292,276.5703,295.4292,280.5703,291.4292,276.5703" style="stroke:#000000;stroke-width:1;"/><line style="stroke:#000000;stroke-width:1;stroke-dasharray:2,2;" x1="289.4292" x2="542.375" y1="276.5703" y2="276.5703"/><text fill="#000000" font-family="Verdana" font-size="13" lengthAdjust="spacing" textLength="108.6274" x="301.4292" y="271.5044">formattedReport</text></g><g class="message" data-participant-1="ReportCtrl" data-participant-2="Admin"><polygon fill="#000000" points="46.4321,301.7031,36.4321,305.7031,46.4321,309.7031,42.4321,305.7031" style="stroke:#000000;stroke-width:1;"/><line style="stroke:#000000;stroke-width:1;stroke-dasharray:2,2;" x1="40.4321" x2="278.4292" y1="305.7031" y2="305.7031"/><text fill="#000000" font-family="Verdana" font-size="13" lengthAdjust="spacing" textLength="47.7026" x="52.4321" y="300.6372">200 OK</text></g><!--SRC=[RP7DQiCm48JlUefjJWuaJkZHa9QcDgMq44XAxyBQAW9PSbVhbBvz5TafpizD7dQ_dHdVyHuRXDPAumGRjWXRR3snSRg0dRGO1W5s-DsXgr48MRCdc3ofnhW9o03f9LePrshJIiSmwPUUlMForYAbkK5aihU6TqW7K-DeSb3EXpUaa20hrzCqcJxBjH391CmVHbUWW9Vg0nQKbB08npoFIZ9kfTEuolFy6COSeZ8s9qQ8V-1W9Z8rScgcrxF0qLuP4JD0fuwFwINr54ISeo9xi1-fKcj27NUoq3K5i6TfPw39T-twjm2L3lpiaR20U9Axi2ghzzVFQbkLeuEdFaxW-Oq0aIM5mgkTItkNPNvvQYGpgbuT8sxcx0kCbFxV572_NCBcxNeljVu7]--></g></svg>